<svg xmlns="http://www.w3.org/2000/svg" width="410" height="404" viewBox="0 0 410 404" fill="none">
  <path d="M399.641 59.5246L215.643 388.545C211.844 395.338 202.084 395.378 198.228 388.618L10.5817 59.5563C6.38087 52.1896 12.6802 43.2665 21.0281 44.7586L205.223 77.6824C206.398 77.8924 207.601 77.8904 208.776 77.6763L389.119 44.8058C397.439 43.2894 403.768 52.1434 399.641 59.5246Z" fill="url(#paint0_linear)"/>
  <path d="M292.965 1.5744L156.3 28.2552C154.563 28.5963 153.227 30.0025 153.03 31.7647L134.253 199.682C134.009 201.869 135.99 203.63 138.134 203.144L184.42 192.837C186.718 192.318 188.724 194.36 188.195 196.665L176.354 248.255C175.817 250.59 177.889 252.622 180.201 252.035L204.678 245.844C207.004 245.254 209.081 247.302 208.534 249.635L190.398 328.124C189.643 331.41 194.228 333.214 195.994 330.418L197.467 328.04L323.905 102.803C325.146 100.524 323.35 97.8291 320.754 98.3377L273.403 107.766C271.067 108.225 269.145 106.107 269.773 103.807L298.508 0.911308C299.151 -1.45219 297.236 -3.57821 294.849 -3.09273e-05L292.965 1.5744Z" fill="url(#paint1_linear)"/>
  <defs>
    <linearGradient id="paint0_linear" x1="6.00017" y1="32.9999" x2="235" y2="344" gradientUnits="userSpaceOnUse">
      <stop stop-color="#41D1FF"/>
      <stop offset="1" stop-color="#BD34FE"/>
    </linearGradient>
    <linearGradient id="paint1_linear" x1="194.651" y1="8.81818" x2="236.076" y2="292.989" gradientUnits="userSpaceOnUse">
      <stop stop-color="#FFEA83"/>
      <stop offset="0.0833333" stop-color="#FFDD35"/>
      <stop offset="1" stop-color="#FFA800"/>
    </linearGradient>
  </defs>
</svg>
